Coordinates
version=1
nRows=41
nColumns=38
inDegrees=no

Units are S.I. units (second, meters, Newtons, ...)
If the header above contains a line with 'inDegrees', this indicates whether rotational values are in degrees (yes) or radians (no).

endheader
time	pelvis_tilt	pelvis_list	pelvis_rotation	pelvis_tx	pelvis_ty	pelvis_tz	hip_flexion_r	hip_adduction_r	hip_rotation_r	knee_angle_r	ankle_angle_r	subtalar_angle_r	mtp_angle_r	hip_flexion_l	hip_adduction_l	hip_rotation_l	knee_angle_l	ankle_angle_l	subtalar_angle_l	mtp_angle_l	lumbar_extension	lumbar_bending	lumbar_rotation	arm_flex_r	arm_add_r	arm_rot_r	elbow_flex_r	pro_sup_r	wrist_flex_r	wrist_dev_r	arm_flex_l	arm_add_l	arm_rot_l	elbow_flex_l	pro_sup_l	wrist_flex_l	wrist_dev_l
64.29	-0.128534	0.957694	1.6979	0.6545	0.209005	0.768982	1.54274	-0.0825315	0.106441	1.40227	-0.0260394	0	0	1.43264	-0.108999	-0.0824761	1.41448	0.00111739	0	0	-0.781139	-0.0711149	0.00687525	1.32286	-0.777053	0.44903	1.39843	0.518071	0	0	1.38067	-0.537445	0.465048	1.23967	0.698879	0	0
64.3	-0.128702	0.96022	1.69686	0.654538	0.208439	0.770036	1.53902	-0.0811448	0.106585	1.39887	-0.0278413	0	0	1.42922	-0.108228	-0.081024	1.41158	0.000638366	0	0	-0.782541	-0.0715044	0.00652106	1.32534	-0.77309	0.450233	1.39378	0.520325	0	0	1.38059	-0.535679	0.462954	1.23535	0.70106	0	0
64.31	-0.129169	0.962537	1.69609	0.654562	0.207895	0.771128	1.53548	-0.0802077	0.1064	1.39528	-0.0295165	0	0	1.42567	-0.107371	-0.0797911	1.40829	0.000237618	0	0	-0.784072	-0.0717796	0.00633846	1.32731	-0.769463	0.45094	1.3898	0.522185	0	0	1.38007	-0.533327	0.460196	1.23081	0.701763	0	0
64.32	-0.129632	0.964594	1.69534	0.654582	0.207404	0.772259	1.53225	-0.0797717	0.105583	1.3918	-0.0312759	0	0	1.42211	-0.106672	-0.0788295	1.40478	-0.000168704	0	0	-0.785788	-0.0721324	0.00619681	1.32839	-0.7663	0.450939	1.3868	0.523749	0	0	1.37984	-0.532065	0.4588	1.22733	0.701848	0	0
64.33	-0.129864	0.965906	1.69422	0.654579	0.206944	0.773382	1.5295	-0.0794685	0.104482	1.38789	-0.0288496	0	0	1.41913	-0.106297	-0.0779858	1.40095	-0.000526416	0	0	-0.786759	-0.0726928	0.00676102	1.32817	-0.764516	0.45033	1.38514	0.519823	0	0	1.3795	-0.530926	0.45862	1.22454	0.701528	0	0
64.34	-0.130286	0.968241	1.6931	0.654552	0.206519	0.774671	1.5255	-0.0794295	0.102962	1.38383	-0.0310558	0	0	1.41492	-0.10643	-0.0775155	1.39699	-0.00125461	0	0	-0.788706	-0.0729102	0.00728738	1.32817	-0.762063	0.449658	1.38337	0.521428	0	0	1.37819	-0.530181	0.457366	1.22267	0.700542	0	0
64.35	-0.130417	0.970178	1.69169	0.654512	0.206092	0.775965	1.52176	-0.0795037	0.101309	1.37952	-0.0328978	0	0	1.41127	-0.106889	-0.0770778	1.39311	-0.00217913	0	0	-0.78999	-0.073122	0.00830268	1.32676	-0.760519	0.448096	1.38288	0.522621	0	0	1.37589	-0.529985	0.456308	1.22231	0.700121	0	0
64.36	-0.130103	0.972936	1.68982	0.654474	0.205755	0.77746	1.51664	-0.0796647	0.0990476	1.37453	-0.035781	0	0	1.40653	-0.107749	-0.076649	1.38886	-0.00378842	0	0	-0.792149	-0.0728681	0.00993162	1.32469	-0.759372	0.445742	1.38327	0.524914	0	0	1.37251	-0.529869	0.454488	1.22312	0.700442	0	0
64.37	-0.129682	0.977388	1.68791	0.654458	0.20552	0.779232	1.5096	-0.0801573	0.0958977	1.36949	-0.0471201	0	0	1.39981	-0.109008	-0.0764319	1.38449	-0.00739097	0	0	-0.796554	-0.0723228	0.0115958	1.32176	-0.757467	0.441176	1.38426	0.53685	0	0	1.36846	-0.529783	0.450773	1.22509	0.704698	0	0
64.38	-0.128978	0.980457	1.68598	0.65444	0.205303	0.780911	1.50416	-0.0809735	0.0924862	1.3646	-0.0505284	0	0	1.39442	-0.110041	-0.0761098	1.37989	-0.00918532	0	0	-0.798923	-0.0719391	0.0134195	1.31677	-0.75638	0.436183	1.38622	0.539665	0	0	1.36323	-0.529686	0.447766	1.2277	0.707128	0	0
64.39	-0.128252	0.983673	1.684	0.654419	0.205122	0.782666	1.49839	-0.081625	0.089307	1.35951	-0.0539079	0	0	1.3886	-0.111146	-0.0759417	1.37502	-0.0108808	0	0	-0.801513	-0.0716722	0.0154085	1.31127	-0.755778	0.431123	1.38851	0.542069	0	0	1.35756	-0.529635	0.444735	1.23086	0.709637	0	0
64.4	-0.12784	0.986792	1.68236	0.654368	0.204975	0.784489	1.49247	-0.0821801	0.0867807	1.3541	-0.0572202	0	0	1.3825	-0.111907	-0.0759764	1.36968	-0.0124264	0	0	-0.803321	-0.0711156	0.0179885	1.30489	-0.755703	0.426247	1.39091	0.544032	0	0	1.35031	-0.527241	0.439226	1.2327	0.712169	0	0
64.41	-0.128106	0.98996	1.68146	0.654264	0.204869	0.786417	1.48624	-0.0828205	0.0850366	1.34854	-0.0604898	0	0	1.37584	-0.112198	-0.0763152	1.36372	-0.0138372	0	0	-0.804761	-0.0703644	0.0206613	1.29789	-0.75588	0.421551	1.39345	0.546101	0	0	1.3416	-0.523599	0.431758	1.23428	0.714319	0	0
64.42	-0.128687	0.993493	1.68064	0.654172	0.204793	0.788485	1.47932	-0.0832265	0.0833852	1.34258	-0.06362	0	0	1.36836	-0.11258	-0.0768138	1.3573	-0.015172	0	0	-0.806922	-0.069948	0.0229594	1.2909	-0.756347	0.417316	1.39657	0.548513	0	0	1.33315	-0.522158	0.426034	1.23805	0.717083	0	0
64.43	-0.12899	0.997605	1.67975	0.654092	0.20476	0.790743	1.47145	-0.0837147	0.0811884	1.33622	-0.0665288	0	0	1.36002	-0.112801	-0.077248	1.35041	-0.0165942	0	0	-0.809738	-0.0696249	0.0250024	1.28317	-0.7566	0.412233	1.39993	0.551259	0	0	1.32536	-0.522319	0.422228	1.24291	0.721434	0	0
64.44	-0.129167	1.00213	1.6788	0.654027	0.204784	0.793141	1.46276	-0.0840152	0.078902	1.32948	-0.0692202	0	0	1.35096	-0.113002	-0.0777946	1.34304	-0.0181346	0	0	-0.812622	-0.0692357	0.0272763	1.27471	-0.756972	0.406857	1.40334	0.554192	0	0	1.31729	-0.522076	0.418219	1.24747	0.726324	0	0
64.45	-0.129565	1.00666	1.67797	0.653993	0.204855	0.79565	1.45351	-0.0838106	0.0772608	1.3222	-0.0717427	0	0	1.34156	-0.113207	-0.0786176	1.33526	-0.0198566	0	0	-0.814608	-0.068519	0.0300708	1.26549	-0.756995	0.401252	1.4063	0.557267	0	0	1.30741	-0.519105	0.411169	1.25006	0.731267	0	0
64.46	-0.130056	1.01167	1.67758	0.653968	0.204993	0.798331	1.44338	-0.083552	0.075892	1.31467	-0.074212	0	0	1.33138	-0.113169	-0.0795175	1.32711	-0.0218936	0	0	-0.817134	-0.0676338	0.0322545	1.25623	-0.756469	0.395734	1.40887	0.561038	0	0	1.29754	-0.516866	0.404661	1.2529	0.736236	0	0
64.47	-0.130789	1.01707	1.67769	0.653933	0.205153	0.801164	1.43257	-0.0833244	0.0749779	1.30676	-0.0767366	0	0	1.32055	-0.11292	-0.0804809	1.31861	-0.0243141	0	0	-0.820628	-0.0669819	0.0334565	1.2471	-0.755707	0.39087	1.41174	0.565708	0	0	1.28871	-0.51684	0.400374	1.25712	0.740646	0	0
64.48	-0.131835	1.02257	1.67828	0.653869	0.205296	0.804114	1.42163	-0.0830134	0.074588	1.29871	-0.0794019	0	0	1.30938	-0.112358	-0.0813686	1.30963	-0.0271453	0	0	-0.82444	-0.0666315	0.0340533	1.23759	-0.754683	0.385415	1.41473	0.569763	0	0	1.28076	-0.518178	0.397846	1.26202	0.744754	0	0
64.49	-0.13324	1.02801	1.6794	0.653803	0.205428	0.807165	1.4106	-0.0827599	0.0744822	1.29034	-0.0819966	0	0	1.29795	-0.111542	-0.0824493	1.30001	-0.0303287	0	0	-0.827628	-0.0659698	0.0350157	1.22773	-0.754037	0.380173	1.4174	0.573547	0	0	1.27202	-0.517428	0.393435	1.2654	0.748587	0	0
64.5	-0.134661	1.03339	1.68085	0.653728	0.205561	0.810317	1.39929	-0.0826349	0.0745374	1.28152	-0.0844347	0	0	1.28633	-0.110656	-0.0838032	1.28986	-0.0338599	0	0	-0.830391	-0.0649297	0.0359058	1.21766	-0.753301	0.375173	1.41978	0.57669	0	0	1.26281	-0.516103	0.38834	1.2683	0.752257	0	0
64.51	-0.135647	1.03885	1.68246	0.65362	0.205726	0.813578	1.38742	-0.0828006	0.0745959	1.27219	-0.0867326	0	0	1.27439	-0.109833	-0.0853427	1.27931	-0.037677	0	0	-0.833479	-0.063772	0.0360111	1.20686	-0.751963	0.368835	1.42251	0.578662	0	0	1.25435	-0.516945	0.385355	1.27274	0.756105	0	0
64.52	-0.136252	1.04409	1.68411	0.653493	0.205928	0.816926	1.37527	-0.0830149	0.0748388	1.26231	-0.0888707	0	0	1.26231	-0.108998	-0.0870847	1.26798	-0.0415658	0	0	-0.83568	-0.0619889	0.036272	1.19526	-0.750337	0.361775	1.42514	0.580532	0	0	1.24483	-0.516277	0.380587	1.27625	0.759975	0	0
64.53	-0.136847	1.04907	1.68591	0.653403	0.206181	0.82035	1.36303	-0.083603	0.0744628	1.25196	-0.0908002	0	0	1.24997	-0.108348	-0.0893451	1.25579	-0.0453376	0	0	-0.836928	-0.0596751	0.0368572	1.18318	-0.748697	0.355188	1.42777	0.583756	0	0	1.23433	-0.513897	0.374163	1.2784	0.764162	0	0
64.54	-0.137223	1.05426	1.68781	0.653339	0.206492	0.823848	1.35045	-0.084896	0.0729429	1.24163	-0.0926063	0	0	1.23709	-0.107989	-0.0920258	1.24311	-0.0488115	0	0	-0.838387	-0.0574345	0.0367362	1.17081	-0.74677	0.348834	1.43067	0.586886	0	0	1.22416	-0.513595	0.369698	1.28183	0.767514	0	0
64.55	-0.137986	1.06113	1.69021	0.653262	0.206886	0.827625	1.33556	-0.0863907	0.0712673	1.23081	-0.095053	0	0	1.22177	-0.107845	-0.0954482	1.22937	-0.0532541	0	0	-0.842453	-0.0551176	0.0357555	1.15973	-0.744786	0.343271	1.4342	0.590213	0	0	1.215	-0.515995	0.366835	1.28715	0.771279	0	0
64.56	-0.138465	1.0669	1.69254	0.653177	0.207314	0.831281	1.32194	-0.0880284	0.0696193	1.2203	-0.0969588	0	0	1.20749	-0.107459	-0.0987164	1.21539	-0.0565527	0	0	-0.844006	-0.0523623	0.0353687	1.14696	-0.742978	0.337426	1.43768	0.591957	0	0	1.20418	-0.515753	0.361968	1.29074	0.773491	0	0
64.57	-0.1392	1.07402	1.69506	0.6531	0.207781	0.835108	1.30664	-0.0895519	0.0680677	1.20939	-0.0996141	0	0	1.19145	-0.107152	-0.102055	1.20101	-0.0604581	0	0	-0.847126	-0.0500233	0.034308	1.1346	-0.740674	0.331563	1.44096	0.593261	0	0	1.19441	-0.51719	0.358663	1.29555	0.774517	0	0
64.58	-0.139759	1.08172	1.69743	0.652995	0.208273	0.838955	1.29094	-0.0912369	0.0660709	1.19889	-0.102688	0	0	1.175	-0.106787	-0.105245	1.18678	-0.0645274	0	0	-0.850029	-0.0473875	0.033461	1.12224	-0.738239	0.326222	1.44367	0.594262	0	0	1.18433	-0.518217	0.355294	1.29963	0.776109	0	0
64.59	-0.139722	1.08942	1.69917	0.652894	0.208784	0.842756	1.27575	-0.0931711	0.0630198	1.18908	-0.106042	0	0	1.15897	-0.106808	-0.108491	1.17303	-0.0687959	0	0	-0.852582	-0.044555	0.0328291	1.10983	-0.736405	0.321641	1.44671	0.595101	0	0	1.17402	-0.52007	0.352412	1.30431	0.777315	0	0
64.6	-0.138578	1.09553	1.69994	0.652816	0.209272	0.846335	1.26268	-0.0954824	0.0585286	1.17977	-0.105814	0	0	1.14514	-0.107157	-0.11115	1.15996	-0.071694	0	0	-0.85264	-0.042017	0.0324905	1.09518	-0.734715	0.315539	1.45047	0.595728	0	0	1.16341	-0.522297	0.350789	1.30924	0.778957	0	0
64.61	-0.137733	1.10402	1.70092	0.652759	0.209766	0.8502	1.24669	-0.0983084	0.0522348	1.16971	-0.109827	0	0	1.12875	-0.107852	-0.114163	1.14674	-0.0769364	0	0	-0.855258	-0.0395838	0.0313702	1.08252	-0.732349	0.310906	1.45347	0.595553	0	0	1.1538	-0.526118	0.349871	1.3152	0.780308	0	0
64.62	-0.13679	1.11163	1.70159	0.652695	0.210218	0.853997	1.2315	-0.101102	0.0456144	1.15909	-0.113329	0	0	1.11339	-0.108443	-0.116674	1.13362	-0.0814994	0	0	-0.856546	-0.0377665	0.0300454	1.06931	-0.730039	0.306288	1.4566	0.594193	0	0	1.14424	-0.5308	0.350228	1.32172	0.781196	0	0
64.63	-0.135927	1.11931	1.70218	0.652673	0.210741	0.857761	1.21606	-0.102691	0.0410583	1.14866	-0.116284	0	0	1.09782	-0.109027	-0.118758	1.12062	-0.0855619	0	0	-0.857866	-0.0367812	0.0283701	1.05566	-0.727829	0.301429	1.45948	0.594376	0	0	1.13528	-0.537412	0.352817	1.32975	0.781121	0	0
64.64	-0.13577	1.12807	1.70353	0.652654	0.211381	0.861653	1.19907	-0.10404	0.0374341	1.13804	-0.119457	0	0	1.08056	-0.109459	-0.12137	1.10699	-0.0901209	0	0	-0.859725	-0.0357013	0.026652	1.04198	-0.725378	0.296591	1.46198	0.594977	0	0	1.12589	-0.542697	0.354139	1.33668	0.780301	0	0
64.65	-0.136583	1.1389	1.7062	0.652571	0.212154	0.8658	1.17911	-0.106042	0.0334724	1.12665	-0.123313	0	0	1.0604	-0.109646	-0.124909	1.09231	-0.0958252	0	0	-0.863467	-0.0341374	0.0249953	1.02921	-0.723377	0.292621	1.46426	0.59504	0	0	1.11685	-0.546549	0.354521	1.3423	0.779401	0	0
64.66	-0.137866	1.14988	1.70955	0.652458	0.213035	0.869922	1.15873	-0.108202	0.0297911	1.11521	-0.126752	0	0	1.0398	-0.109648	-0.128883	1.07756	-0.100933	0	0	-0.866676	-0.0326625	0.0235859	1.01566	-0.722087	0.288693	1.46679	0.593299	0	0	1.10766	-0.549287	0.354828	1.34727	0.77863	0	0
64.67	-0.138676	1.15798	1.71183	0.652386	0.213926	0.873767	1.14191	-0.109487	0.0272111	1.10429	-0.129664	0	0	1.02224	-0.109877	-0.132911	1.06283	-0.105061	0	0	-0.866023	-0.0317876	0.0229318	1.00004	-0.721503	0.284156	1.46988	0.591677	0	0	1.09696	-0.551132	0.35456	1.35218	0.778076	0	0
64.68	-0.138843	1.16471	1.71273	0.652365	0.214874	0.877513	1.12667	-0.10991	0.0249927	1.09334	-0.133144	0	0	1.00603	-0.11091	-0.137559	1.04806	-0.109504	0	0	-0.86327	-0.0314793	0.0227952	0.98312	-0.7205	0.278695	1.4729	0.590869	0	0	1.08521	-0.552829	0.353922	1.3572	0.778066	0	0
64.69	-0.139053	1.17231	1.71378	0.652281	0.215804	0.881321	1.11045	-0.110768	0.0219102	1.08218	-0.137575	0	0	0.988956	-0.111685	-0.141874	1.03324	-0.114494	0	0	-0.860554	-0.0306932	0.0241033	0.966014	-0.721571	0.273728	1.47609	0.590666	0	0	1.07451	-0.55248	0.35461	1.35952	0.778768	0	0
